# xmcd CD database file
#
# Track frame offsets:
#	182
#	12655
#	26477
#	37110
#	50097
#	64100
#	75930
#	91000
#	106160
#	121855
#	134330
#	148060
#	158545
#	174265
#	187247
#	202132
#	213270
#	227970
#	239242
#	253997
#	287010
#	300837
#	313357
#
# Disc length: 4466 seconds
#
# Revision: 0
# Processed by: cddbd v1.5.1PL2 Copyright (c) Steve Scherf et al.
# Submitted via: CDex 1.51
#
DISCID=4e117017
DTITLE=Duke Ellington - Recollections of the Big Band Era
DYEAR=1989
DGENRE=Jazz
TTITLE0=Minnie the Moocher
TTITLE1=For Dancers Only
TTITLE2=It's a Lonesome Town When You're Not Around
TTITLE3=Cherokee
TTITLE4=The Midnight Sun Will Never Set
TTITLE5=Let's Get Together
TTITLE6=I'm Gettin' Sentimental Over You
TTITLE7=Chant of the Weed
TTITLE8=Ciribirbin
TTITLE9=Contrasts
TTITLE10=Christopher Columbus
TTITLE11=Auld Lang Syne
TTITLE12=Tuxedo Junction
TTITLE13=Smoke Rings
TTITLE14=Artistry in Rhythm
TTITLE15=The Waltz You Saved For Me
TTITLE16=Woodchopper's Ball
TTITLE17=Sentimental Journey
TTITLE18=When It's Sleepy Time Down South
TTITLE19=One O'Clock Jump
TTITLE20=Goodbye
TTITLE21=Sleep, Sleep, Sleep
TTITLE22=Rhapsody in Blue
EXTD=YEAR: 1989
EXTT0=
EXTT1=
EXTT2=
EXTT3=
EXTT4=
EXTT5=
EXTT6=
EXTT7=
EXTT8=
EXTT9=
EXTT10=
EXTT11=
EXTT12=
EXTT13=
EXTT14=
EXTT15=
EXTT16=
EXTT17=
EXTT18=
EXTT19=
EXTT20=
EXTT21=
EXTT22=
PLAYORDER=
